<?xml version="1.0" encoding="UTF-8" standalone="no"?>
<!-- Created with Inkscape (http://www.inkscape.org/) -->

<svg
   width="600"
   height="200"
   viewBox="0 0 600 200.00001"
   version="1.1"
   id="svg1"
   inkscape:version="1.3.2 (091e20ef0f, 2023-11-25)"
   sodipodi:docname="SebastJava-logo-02-converted.svg"
   xmlns:inkscape="http://www.inkscape.org/namespaces/inkscape"
   xmlns:sodipodi="http://sodipodi.sourceforge.net/DTD/sodipodi-0.dtd"
   xmlns="http://www.w3.org/2000/svg"
   xmlns:svg="http://www.w3.org/2000/svg">
  <sodipodi:namedview
     id="namedview1"
     pagecolor="#e5e5e5"
     bordercolor="#000000"
     borderopacity="0.25"
     inkscape:showpageshadow="false"
     inkscape:pageopacity="0.0"
     inkscape:pagecheckerboard="0"
     inkscape:deskcolor="#d1d1d1"
     inkscape:document-units="px"
     inkscape:current-layer="layer1"
     showborder="false"
     borderlayer="false" />
  <defs
     id="defs1" />
  <g
     inkscape:label="Layer 1"
     inkscape:groupmode="layer"
     id="layer1"
     transform="translate(-812.61932,-774.25598)">
    <g
       id="logo-name">
      <path
         style="font-size:75px;line-height:75px;font-family:'Roboto Slab';-inkscape-font-specification:'Roboto Slab';text-align:end;letter-spacing:0px;text-anchor:end;fill:#404040;stroke-width:0;stroke-linejoin:round;stroke:none"
         d="m 989.60022,903.20496 q -4.87061,0 -9.375,-1.42823 -4.50439,-1.42822 -8.60596,-4.39453 v -11.38916 h 5.60303 l 1.2085,8.38623 q 2.38037,1.46485 5.16357,2.27051 2.7832,0.80566 6.00586,0.80566 3.66211,0 6.18896,-1.09863 2.56348,-1.13525 3.91846,-3.11279 1.35496,-1.97754 1.35496,-4.61426 0,-2.45361 -1.17185,-4.32129 -1.17188,-1.86767 -3.88184,-3.25928 -2.67334,-1.42822 -7.32422,-2.49023 -5.49316,-1.28174 -9.30176,-3.40576 -3.77197,-2.16065 -5.74951,-5.2002 -1.94092,-3.07617 -1.94092,-7.03125 0,-4.1748 2.19727,-7.4707 2.23389,-3.2959 6.18897,-5.2002 3.95507,-1.90429 9.22851,-1.90429 5.60303,0 9.8877,1.72119 4.32125,1.68457 7.10445,4.10156 v 10.65674 h -5.603 l -1.20848,-7.61719 q -1.64795,-1.31836 -4.10157,-2.19726 -2.45361,-0.87891 -6.0791,-0.87891 -3.07617,0 -5.41992,1.09863 -2.34375,1.06201 -3.66211,3.00293 -1.31836,1.94092 -1.31836,4.57764 0,2.30713 1.17188,4.02832 1.20849,1.72119 3.88183,3.03955 2.70996,1.28174 7.21436,2.41699 8.42285,2.08741 12.74417,6.18897 4.3579,4.06494 4.3579,10.0708 0,4.28467 -2.3072,7.61719 -2.3071,3.29589 -6.51851,5.16357 -4.1748,1.86768 -9.85107,1.86768 z m 42.73678,0 q -5.4931,0 -9.5581,-2.49024 -4.0649,-2.52685 -6.2988,-6.99463 -2.1973,-4.46777 -2.1973,-10.32715 v -1.61132 q 0,-5.63965 2.3072,-10.0708 2.3437,-4.46778 6.1889,-7.03125 3.8819,-2.6001 8.4595,-2.6001 5.3467,0 8.9356,2.19726 3.6254,2.19727 5.4565,6.18897 1.831,3.95508 1.831,9.33838 v 4.50439 h -25.708 l -0.1098,0.18311 q 0.073,3.80859 1.3183,6.7749 1.2818,2.92969 3.6621,4.61426 2.3804,1.68457 5.7129,1.68457 3.6621,0 6.4087,-1.02539 2.7832,-1.06201 4.7974,-2.89307 l 2.8198,4.6875 q -2.124,2.05078 -5.6396,3.479 -3.479,1.39161 -8.3863,1.39161 z m -10.3637,-24.53614 h 18.2739 v -0.95215 q 0,-2.85644 -1.0254,-5.09033 -0.9888,-2.27051 -3.0029,-3.55224 -1.9776,-1.31836 -4.9805,-1.31836 -2.417,0 -4.3945,1.42822 -1.9776,1.3916 -3.2593,3.80859 -1.2817,2.417 -1.6846,5.49317 z m 52.1484,24.53614 q -3.8818,0 -6.7383,-1.46485 -2.8564,-1.50146 -4.7607,-4.39453 l -0.6592,5.09033 h -6.2256 v -51.45263 l -5.9692,-1.02539 v -4.65088 h 13.1836 v 22.19238 q 1.8676,-2.63672 4.6142,-4.02832 2.7832,-1.3916 6.482,-1.3916 4.9072,0 8.3496,2.67334 3.479,2.63672 5.31,7.43408 1.8677,4.79736 1.8677,11.16943 v 0.76905 q 0,5.71289 -1.8677,9.99755 -1.831,4.28467 -5.31,6.70166 -3.4424,2.38038 -8.2764,2.38038 z m -1.8311,-5.85938 q 5.0904,0 7.544,-3.62549 2.4902,-3.62549 2.4902,-9.59472 v -0.76905 q 0,-4.57763 -1.0986,-8.02002 -1.0986,-3.479 -3.3325,-5.41992 -2.2339,-1.97754 -5.6763,-1.97754 -3.3325,0 -5.6396,1.61133 -2.2705,1.61133 -3.6255,4.32129 v 17.50488 q 1.355,2.74658 3.6621,4.35791 2.3437,1.61133 5.6762,1.61133 z m 35.5225,5.85938 q -6.189,0 -9.4116,-3.00293 -3.2227,-3.03955 -3.2227,-8.53272 0,-5.63965 4.6143,-9.04541 4.6142,-3.44238 12.8174,-3.44238 h 7.0678 v -3.88184 q 0,-3.58886 -2.1972,-5.5664 -2.1607,-1.97754 -6.1157,-1.97754 -2.4903,0 -4.3213,0.62256 -1.8311,0.58593 -3.3326,1.64795 l -0.769,5.52978 h -5.5664 V 866.474 q 2.6733,-2.16065 6.2256,-3.25928 3.5522,-1.13525 7.8735,-1.13525 7.2144,0 11.3159,3.44238 4.1016,3.44238 4.1016,9.85107 v 19.07959 q 0,0.76905 0,1.50147 0.037,0.73242 0.1099,1.46484 l 3.8452,0.40284 v 4.61425 h -10.3638 q -0.3296,-1.61133 -0.5127,-2.89306 -0.1831,-1.28174 -0.2563,-2.56348 -2.0874,2.67334 -5.2369,4.46777 -3.1127,1.75782 -6.665,1.75782 z m 1.062,-6.04248 q 3.5889,0 6.5552,-1.7212 2.9663,-1.72119 4.248,-4.13818 v -7.17773 h -7.3242 q -4.9804,0 -7.4707,2.38037 -2.4902,2.38037 -2.4902,5.31006 0,2.60009 1.6113,3.9917 1.6113,1.35498 4.8706,1.35498 z m 43.6157,6.04248 q -3.9917,0 -7.4707,-0.80567 -3.479,-0.80566 -7.3974,-2.49023 l -0.073,-9.41162 h 5.4566 l 1.355,5.67627 q 2.0507,0.84228 3.955,1.24511 1.941,0.36621 4.1748,0.36621 4.3946,0 6.2989,-1.68457 1.9043,-1.68457 1.9043,-4.1748 0,-2.34375 -1.9409,-3.95508 -1.9043,-1.64795 -6.9581,-2.7832 -7.1777,-1.64795 -10.5835,-4.39453 -3.3691,-2.78321 -3.3691,-7.39746 0,-3.22266 1.8677,-5.74952 1.8677,-2.56347 5.2002,-4.06494 3.3325,-1.50146 7.7637,-1.50146 4.5043,0 7.6904,1.02539 3.2226,1.02539 5.603,2.74658 l 0.3662,9.04541 h -5.4199 l -1.1719,-5.27344 q -1.2817,-0.95215 -3.0395,-1.46484 -1.7578,-0.5127 -4.0283,-0.5127 -3.3692,0 -5.4932,1.57471 -2.0874,1.57471 -2.0874,3.95508 0,1.3916 0.5859,2.41699 0.6226,1.02539 2.3438,1.86768 1.7212,0.80566 5.0537,1.61133 8.2763,1.94091 11.5356,4.94384 3.2959,3.00293 3.2959,7.39746 0,5.01709 -3.7353,8.42286 -3.6988,3.36914 -11.6822,3.36914 z m 35.376,-0.14649 q -4.3945,0 -6.9946,-2.56347 -2.5635,-2.6001 -2.5635,-8.27637 v -24.06006 h -6.2622 v -5.34668 h 6.2622 v -9.55811 h 7.2144 v 9.55811 h 8.6059 v 5.34668 h -8.6059 v 24.06006 q 0,2.85644 1.1352,4.21142 1.1353,1.35498 3.0396,1.35498 1.2817,0 2.8564,-0.21972 1.5747,-0.25635 2.4536,-0.43946 l 0.9888,4.72413 q -1.5747,0.47607 -3.8818,0.84228 -2.2705,0.36621 -4.2481,0.36621 z m 28.4546,0.14649 q -4.4311,0 -8.0566,-1.75782 -3.5889,-1.75781 -5.7862,-5.31006 -2.1606,-3.55224 -2.3803,-8.89892 l 0.073,-0.21973 h 6.9214 q 0.1465,5.3833 2.4536,7.91016 2.3438,2.52685 6.665,2.52685 3.0396,0 4.9805,-1.28173 1.9409,-1.31836 2.8565,-3.58887 0.9521,-2.30713 0.9521,-5.27344 v -32.51953 l -7.1045,-0.95215 v -4.72412 h 20.2881 v 4.65088 l -5.9692,1.02539 v 32.51953 q 0,4.76074 -1.8311,8.34961 -1.7944,3.58887 -5.3467,5.56641 -3.5156,1.97754 -8.7158,1.97754 z m 38.917,0 q -6.189,0 -9.4116,-3.00293 -3.2227,-3.03955 -3.2227,-8.53272 0,-5.63965 4.6143,-9.04541 4.6142,-3.44238 12.8174,-3.44238 h 7.0678 v -3.88184 q 0,-3.58886 -2.1972,-5.5664 -2.1607,-1.97754 -6.1158,-1.97754 -2.4902,0 -4.3212,0.62256 -1.8311,0.58593 -3.3326,1.64795 l -0.769,5.52978 h -5.5664 V 866.474 q 2.6733,-2.16065 6.2256,-3.25928 3.5522,-1.13525 7.8735,-1.13525 7.2144,0 11.3159,3.44238 4.1016,3.44238 4.1016,9.85107 v 19.07959 q 0,0.76905 0,1.50147 0.037,0.73242 0.1099,1.46484 l 3.8452,0.40284 v 4.61425 h -10.3638 q -0.3296,-1.61133 -0.5127,-2.89306 -0.1831,-1.28174 -0.2563,-2.56348 -2.0874,2.67334 -5.2369,4.46777 -3.1128,1.75782 -6.665,1.75782 z m 1.062,-6.04248 q 3.5889,0 6.5552,-1.7212 2.9663,-1.72119 4.248,-4.13818 v -7.17773 h -7.3242 q -4.9804,0 -7.4707,2.38037 -2.4902,2.38037 -2.4902,5.31006 0,2.60009 1.6113,3.9917 1.6113,1.35498 4.8706,1.35498 z m 42.0186,5.27343 -14.0992,-34.42383 -4.1015,-0.54931 v -4.65088 h 16.626 v 4.65088 l -5.1636,0.73242 8.7891,22.55859 1.0253,3.18604 h 0.2198 l 1.1718,-3.18604 8.1665,-22.55859 -5.31,-0.73242 v -4.65088 h 16.5893 v 4.65088 l -4.1748,0.54931 -13.4033,34.42383 z m 39.9902,0.76905 q -6.189,0 -9.4116,-3.00293 -3.2227,-3.03955 -3.2227,-8.53272 0,-5.63965 4.6143,-9.04541 4.6142,-3.44238 12.8174,-3.44238 h 7.0678 v -3.88184 q 0,-3.58886 -2.1972,-5.5664 -2.1607,-1.97754 -6.1157,-1.97754 -2.4903,0 -4.3213,0.62256 -1.8311,0.58593 -3.3326,1.64795 l -0.769,5.52978 h -5.5664 V 866.474 q 2.6733,-2.16065 6.2256,-3.25928 3.5522,-1.13525 7.8735,-1.13525 7.2144,0 11.3159,3.44238 4.1016,3.44238 4.1016,9.85107 v 19.07959 q 0,0.76905 0,1.50147 0.037,0.73242 0.1099,1.46484 l 3.8452,0.40284 v 4.61425 h -10.3638 q -0.3296,-1.61133 -0.5127,-2.89306 -0.1831,-1.28174 -0.2563,-2.56348 -2.0874,2.67334 -5.2369,4.46777 -3.1127,1.75782 -6.665,1.75782 z m 1.062,-6.04248 q 3.5889,0 6.5552,-1.7212 2.9663,-1.72119 4.248,-4.13818 v -7.17773 h -7.3242 q -4.9804,0 -7.4707,2.38037 -2.4902,2.38037 -2.4902,5.31006 0,2.60009 1.6113,3.9917 1.6113,1.35498 4.8706,1.35498 z"
         id="name"
         aria-label="SebastJava" />
      <g
         id="logo"
         transform="matrix(1.5038706,0,0,1.5038706,-441.47487,-319.76652)">
        <circle
           style="display:inline;fill:#ffffff;fill-opacity:1;stroke:none;stroke-width:0;stroke-linejoin:round"
           id="bkgnd-circle"
           cx="890.43176"
           cy="793.96625"
           r="36.572266" />
        <path
           d="m 889.96218,830.83803 q -6.57389,0 -12.6535,-1.92768 -6.07961,-1.92768 -11.61552,-5.93133 V 807.607 h 7.56244 l 1.63112,11.31895 q 3.2128,1.97711 6.96931,3.06452 3.75651,1.08741 8.10615,1.08741 4.94277,0 8.35329,-1.48283 3.45994,-1.53226 5.28876,-4.20136 1.82883,-2.6691 1.82883,-6.2279 0,-3.31165 -1.58169,-5.83247 -1.58169,-2.52081 -5.23934,-4.39907 -3.60822,-1.92768 -9.88555,-3.36108 -7.41415,-1.72997 -12.55464,-4.59678 -5.09106,-2.91624 -7.76015,-7.01874 -2.61967,-4.15193 -2.61967,-9.49012 0,-5.63477 2.96566,-10.08326 3.01509,-4.4485 8.35329,-7.01874 5.33819,-2.57024 12.45579,-2.57024 7.56244,0 13.34548,2.3231 5.83248,2.27368 9.58898,5.53591 v 14.38347 h -7.56244 l -1.63111,-10.28097 q -2.22425,-1.7794 -5.53591,-2.96567 -3.31166,-1.18626 -8.205,-1.18626 -4.15193,0 -7.31531,1.48283 -3.16337,1.43341 -4.94277,4.05308 -1.7794,2.61967 -1.7794,6.17846 0,3.11395 1.58169,5.43705 1.63111,2.32311 5.23934,4.1025 3.65765,1.72997 9.73726,3.26223 11.36838,2.81739 17.20085,8.35329 5.8819,5.48648 5.8819,13.59263 0,5.78304 -3.11395,10.28097 -3.11394,4.44849 -8.79813,6.96931 -5.63476,2.52081 -13.29606,2.52081 z"
           id="bkgnd-S-path"
           style="font-size:101.228px;line-height:101.228px;font-family:'Roboto Slab';-inkscape-font-specification:'Roboto Slab';letter-spacing:0px;display:none;fill:#ffffff;fill-opacity:0;stroke:none;stroke-width:0;stroke-linejoin:round"
           aria-label="S" />
        <path
           style="fill:#e50027;fill-opacity:1;stroke:none;stroke-width:0;stroke-linejoin:round"
           d="m 889.56659,764.60559 c -2.76795,0 -5.20554,0.49387 -7.31446,1.48242 -2.10891,0.95561 -3.75709,2.30629 -4.94336,4.05274 -1.18626,1.74644 -1.77929,3.80521 -1.77929,6.17773 0,2.07596 0.52757,3.88877 1.58203,5.4375 1.0874,1.54874 2.83279,2.91726 5.23828,4.10352 2.43843,1.15331 5.68521,2.24021 9.73828,3.26171 7.57891,1.87826 13.31286,4.66292 17.20117,8.35352 3.92126,3.65765 5.88086,8.1877 5.88086,13.5918 0,3.85535 -1.03732,7.28263 -3.11328,10.28125 -1.75681,2.50973 -4.13518,4.55319 -7.11914,6.14258 a 36.572266,36.572266 0 0 0 22.06641,-33.52344 36.572266,36.572266 0 0 0 -14.50196,-29.15235 v 14.22266 h -7.5625 l -1.63281,-10.28125 c -1.48283,-1.18627 -3.32739,-2.174 -5.53516,-2.96484 -2.20777,-0.79084 -4.94285,-1.18555 -8.20507,-1.18555 z"
           id="top-color" />
        <path
           style="fill:#0066cc;fill-opacity:1;stroke:none;stroke-width:0;stroke-linejoin:round"
           d="m 872.89862,761.97668 a 36.572266,36.572266 0 0 0 -19.03907,31.99024 36.572266,36.572266 0 0 0 11.83399,26.84961 v -13.20899 h 7.5625 l 1.63086,11.31836 c 2.14186,1.31807 4.46441,2.33952 6.96875,3.06446 2.50434,0.72493 5.20766,1.08789 8.10742,1.08789 3.29518,0 6.07788,-0.49387 8.35156,-1.48243 2.30663,-1.0215 4.06985,-2.42177 5.28907,-4.20117 1.21921,-1.7794 1.83007,-3.85598 1.83007,-6.22851 0,-2.20777 -0.52757,-4.15149 -1.58203,-5.83203 -1.05446,-1.68054 -2.8018,-3.14822 -5.24023,-4.4004 -2.40548,-1.28511 -5.69989,-2.40572 -9.88477,-3.36132 -4.94276,-1.15332 -9.1277,-2.6845 -12.55469,-4.59571 -3.39403,-1.94415 -5.98037,-4.28453 -7.75976,-7.01953 -1.74645,-2.76795 -2.62109,-5.93144 -2.62109,-9.49023 0,-3.75651 0.98969,-7.11638 2.96679,-10.08203 1.1318,-1.66988 2.5178,-3.13533 4.14063,-4.40821 z"
           id="bottom-color" />
      </g>
    </g>
  </g>
</svg>
