<?xml version="1.0" encoding="UTF-8" standalone="no"?>
<!-- Created with Inkscape (http://www.inkscape.org/) -->

<svg
   width="512"
   height="360"
   viewBox="0 0 512 360.00002"
   version="1.1"
   id="svg1"
   inkscape:version="1.4 (1:1.4+202410161351+e7c3feb100)"
   sodipodi:docname="SebastJava-logoname-05-dark.svg"
   inkscape:export-filename="SebastJava-logoname-05.png"
   inkscape:export-xdpi="96"
   inkscape:export-ydpi="96"
   xmlns:inkscape="http://www.inkscape.org/namespaces/inkscape"
   xmlns:sodipodi="http://sodipodi.sourceforge.net/DTD/sodipodi-0.dtd"
   xmlns="http://www.w3.org/2000/svg"
   xmlns:svg="http://www.w3.org/2000/svg">
  <sodipodi:namedview
     id="namedview1"
     pagecolor="#404040"
     bordercolor="#000000"
     borderopacity="0.25"
     inkscape:showpageshadow="false"
     inkscape:pageopacity="0.0"
     inkscape:pagecheckerboard="0"
     inkscape:deskcolor="#202020"
     inkscape:document-units="px"
     inkscape:current-layer="layer1"
     showborder="false"
     borderlayer="false"
     inkscape:zoom="1"
     inkscape:cx="255"
     inkscape:cy="160"
     inkscape:window-width="1920"
     inkscape:window-height="1011"
     inkscape:window-x="0"
     inkscape:window-y="0"
     inkscape:window-maximized="1" />
  <defs
     id="defs1" />
  <g
     inkscape:label="Layer 1"
     inkscape:groupmode="layer"
     id="layer1"
     transform="translate(-837.61928,-814.25598)">
    <g
       id="g4"
       transform="matrix(3.2082573,0,0,3.2082573,-1763.1149,-1604.992)"
       style="stroke-width:0.46875">
      <circle
         style="display:inline;fill:#ffffff;fill-opacity:0;stroke:none;stroke-width:0;stroke-linejoin:round"
         id="circle1"
         cx="890.43176"
         cy="793.96625"
         r="39.897049" />
      <path
         d="m 889.96218,830.83803 q -6.57389,0 -12.6535,-1.92768 -6.07961,-1.92768 -11.61552,-5.93133 V 807.607 h 7.56244 l 1.63112,11.31895 q 3.2128,1.97711 6.96931,3.06452 3.75651,1.08741 8.10615,1.08741 4.94277,0 8.35329,-1.48283 3.45994,-1.53226 5.28876,-4.20136 1.82883,-2.6691 1.82883,-6.2279 0,-3.31165 -1.58169,-5.83247 -1.58169,-2.52081 -5.23934,-4.39907 -3.60822,-1.92768 -9.88555,-3.36108 -7.41415,-1.72997 -12.55464,-4.59678 -5.09106,-2.91624 -7.76015,-7.01874 -2.61967,-4.15193 -2.61967,-9.49012 0,-5.63477 2.96566,-10.08326 3.01509,-4.4485 8.35329,-7.01874 5.33819,-2.57024 12.45579,-2.57024 7.56244,0 13.34548,2.3231 5.83248,2.27368 9.58898,5.53591 v 14.38347 h -7.56244 l -1.63111,-10.28097 q -2.22425,-1.7794 -5.53591,-2.96567 -3.31166,-1.18626 -8.205,-1.18626 -4.15193,0 -7.31531,1.48283 -3.16337,1.43341 -4.94277,4.05308 -1.7794,2.61967 -1.7794,6.17846 0,3.11395 1.58169,5.43705 1.63111,2.32311 5.23934,4.1025 3.65765,1.72997 9.73726,3.26223 11.36838,2.81739 17.20085,8.35329 5.8819,5.48648 5.8819,13.59263 0,5.78304 -3.11395,10.28097 -3.11394,4.44849 -8.79813,6.96931 -5.63476,2.52081 -13.29606,2.52081 z"
         id="path2"
         style="font-size:101.228px;line-height:101.228px;font-family:'Roboto Slab';-inkscape-font-specification:'Roboto Slab';letter-spacing:0px;display:none;fill:#ffffff;fill-opacity:0;stroke:none;stroke-width:0;stroke-linejoin:round"
         aria-label="S" />
      <path
         style="fill:#b26cf7;fill-opacity:1;stroke:none;stroke-width:0;stroke-linejoin:round"
         d="m 872.89862,761.97668 a 36.572266,36.572266 0 0 0 -19.03907,31.99024 36.572266,36.572266 0 0 0 11.83399,26.84961 v -13.20899 h 7.5625 l 1.63086,11.31836 c 2.14186,1.31807 4.46441,2.33952 6.96875,3.06446 2.50434,0.72493 5.20766,1.08789 8.10742,1.08789 3.29518,0 6.07788,-0.49387 8.35156,-1.48243 2.30663,-1.0215 4.06985,-2.42177 5.28907,-4.20117 1.21921,-1.7794 1.83007,-3.85598 1.83007,-6.22851 0,-2.20777 -0.52757,-4.15149 -1.58203,-5.83203 -1.05446,-1.68054 -2.8018,-3.14822 -5.24023,-4.4004 -2.40548,-1.28511 -5.69989,-2.40572 -9.88477,-3.36132 -4.94276,-1.15332 -9.1277,-2.6845 -12.55469,-4.59571 -3.39403,-1.94415 -5.98037,-4.28453 -7.75976,-7.01953 -1.74645,-2.76795 -2.62109,-5.93144 -2.62109,-9.49023 0,-3.75651 0.98969,-7.11638 2.96679,-10.08203 1.1318,-1.66988 2.5178,-3.13533 4.14063,-4.40821 z"
         id="path3" />
      <path
         style="fill:#ff7a40;fill-opacity:1;stroke:none;stroke-width:0;stroke-linejoin:round"
         d="m 889.56659,764.60559 c -2.76795,0 -5.20554,0.49387 -7.31446,1.48242 -2.10891,0.95561 -3.75709,2.30629 -4.94336,4.05274 -1.18626,1.74644 -1.77929,3.80521 -1.77929,6.17773 0,2.07596 0.52757,3.88877 1.58203,5.4375 1.0874,1.54874 2.83279,2.91726 5.23828,4.10352 2.43843,1.15331 5.68521,2.24021 9.73828,3.26171 7.57891,1.87826 13.31286,4.66292 17.20117,8.35352 3.92126,3.65765 5.88086,8.1877 5.88086,13.5918 0,3.85535 -1.03732,7.28263 -3.11328,10.28125 -1.75681,2.50973 -4.13518,4.55319 -7.11914,6.14258 a 36.572266,36.572266 0 0 0 22.06641,-33.52344 36.572266,36.572266 0 0 0 -14.50196,-29.15235 v 14.22266 h -7.5625 l -1.63281,-10.28125 c -1.48283,-1.18627 -3.32739,-2.174 -5.53516,-2.96484 -2.20777,-0.79084 -4.94285,-1.18555 -8.20507,-1.18555 z"
         id="path4" />
    </g>
    <g
       id="text5-0"
       style="font-size:74.6667px;line-height:74.6659px;font-family:'DejaVu Sans';-inkscape-font-specification:'DejaVu Sans';text-align:center;text-anchor:middle;fill:#202020;stroke-width:0;stroke-linejoin:round"
       aria-label="SebastJava"
       transform="matrix(1.28571,0,0,1.28571,-290.5877,-491.21078)">
      <path
         style="font-family:'Roboto Slab';-inkscape-font-specification:'Roboto Slab';fill:#b26cf7;stroke:none;stroke-width:0;fill-opacity:1"
         d="m 900.52038,1279.8966 q -4.84896,0 -9.33334,-1.4219 -4.48437,-1.4218 -8.56771,-4.375 v -11.3385 h 5.57813 l 1.20313,8.3489 q 2.36979,1.4584 5.14062,2.2605 2.77084,0.802 5.97917,0.802 3.64584,0 6.16146,-1.0937 2.55209,-1.1302 3.90105,-3.099 1.34896,-1.9687 1.34896,-4.5937 0,-2.4427 -1.16667,-4.3021 -1.16667,-1.8594 -3.86459,-3.2448 -2.66146,-1.4219 -7.29167,-2.4792 -5.46875,-1.276 -9.26042,-3.3906 -3.75521,-2.151 -5.72396,-5.1771 -1.93229,-3.0625 -1.93229,-7 0,-4.1562 2.1875,-7.4375 2.22396,-3.2812 6.16146,-5.1771 3.9375,-1.8958 9.18751,-1.8958 5.57812,0 9.84375,1.7135 4.30209,1.6771 7.07292,4.0834 v 10.6094 h -5.57813 l -1.20312,-7.5834 q -1.64063,-1.3125 -4.08334,-2.1875 -2.44271,-0.875 -6.05208,-0.875 -3.06251,0 -5.39584,1.0938 -2.33333,1.0573 -3.64584,2.9896 -1.3125,1.9322 -1.3125,4.5572 0,2.2969 1.16667,4.0105 1.20313,1.7135 3.86459,3.026 2.69791,1.276 7.18229,2.4063 8.38542,2.0781 12.68751,6.1614 4.33854,4.0469 4.33854,10.0261 0,4.2656 -2.29687,7.5833 -2.29688,3.2813 -6.48959,5.1406 -4.15625,1.8594 -9.8073,1.8594 z m 42.5469,0 q -5.46876,0 -9.51563,-2.4792 -4.04688,-2.5156 -6.27084,-6.9635 -2.1875,-4.4479 -2.1875,-10.2813 v -1.6041 q 0,-5.6146 2.29688,-10.0261 2.33333,-4.4479 6.16146,-7 3.86458,-2.5885 8.42188,-2.5885 5.32291,0 8.89583,2.1875 3.60938,2.1875 5.4323,6.1614 1.82291,3.9375 1.82291,9.2969 v 4.4844 h -25.59376 l -0.10937,0.1823 q 0.0729,3.7917 1.3125,6.7448 1.27604,2.9167 3.64583,4.5937 2.3698,1.6771 5.68751,1.6771 3.64583,0 6.38021,-1.0208 2.77083,-1.0573 4.77604,-2.8802 l 2.80729,4.6666 q -2.11458,2.0417 -5.61458,3.4636 -3.46354,1.3854 -8.34896,1.3854 z m -10.31772,-24.4271 h 18.19272 v -0.9479 q 0,-2.8438 -1.02083,-5.0677 -0.98438,-2.2604 -2.98959,-3.5365 -1.96875,-1.3125 -4.95833,-1.3125 -2.40626,0 -4.37501,1.4219 -1.96875,1.3854 -3.24479,3.7917 -1.27604,2.4062 -1.67708,5.4687 z m 51.91669,24.4271 q -3.86458,0 -6.70833,-1.4583 -2.84375,-1.4948 -4.73959,-4.375 l -0.65625,5.0677 h -6.19792 v -51.224 l -5.94271,-1.0208 v -4.6302 h 13.12501 v 22.0937 q 1.85937,-2.625 4.59375,-4.0104 2.77083,-1.3854 6.45313,-1.3854 4.88542,0 8.3125,2.6614 3.46355,2.625 5.28646,7.4011 1.8594,4.776 1.8594,11.1198 v 0.7656 q 0,5.6875 -1.8594,9.9531 -1.82291,4.2657 -5.28646,6.6719 -3.42708,2.3698 -8.23959,2.3698 z m -1.82291,-5.8333 q 5.06771,0 7.51042,-3.6094 2.47917,-3.6094 2.47917,-9.5521 v -0.7656 q 0,-4.5573 -1.09375,-7.9844 -1.09376,-3.4635 -3.31771,-5.3958 -2.22396,-1.9688 -5.65105,-1.9688 -3.31771,0 -5.61459,1.6042 -2.26041,1.6041 -3.60937,4.3021 v 17.4271 q 1.34896,2.7343 3.64583,4.3385 2.33334,1.6042 5.65105,1.6042 z m 35.36456,5.8333 q -6.1614,0 -9.3698,-2.9896 -3.2083,-3.026 -3.2083,-8.4948 0,-5.6146 4.5938,-9.0052 4.5937,-3.4271 12.7604,-3.4271 h 7.0364 v -3.8646 q 0,-3.5729 -2.1875,-5.5416 -2.151,-1.9688 -6.0885,-1.9688 -2.4792,0 -4.3021,0.6198 -1.8229,0.5833 -3.3177,1.6406 l -0.7656,5.5053 h -5.5417 v -9.0417 q 2.6615,-2.1511 6.1979,-3.2448 3.5365,-1.1302 7.8386,-1.1302 7.1823,0 11.2656,3.4271 4.0833,3.427 4.0833,9.8073 v 18.9948 q 0,0.7656 0,1.4948 0.036,0.7291 0.1094,1.4583 l 3.8281,0.401 v 4.5938 h -10.3177 q -0.3281,-1.6042 -0.5104,-2.8802 -0.1823,-1.2761 -0.2552,-2.5521 -2.0781,2.6614 -5.2135,4.4479 -3.099,1.75 -6.6355,1.75 z m 1.0573,-6.0156 q 3.5729,0 6.5261,-1.7136 2.9531,-1.7135 4.2291,-4.1198 v -7.1458 h -7.2916 q -4.9584,0 -7.4375,2.3698 -2.4792,2.3698 -2.4792,5.2865 0,2.5885 1.6042,3.9739 1.6041,1.349 4.8489,1.349 z m 42.4219,6.0156 q -3.9739,0 -7.4375,-0.8021 -3.4635,-0.8021 -7.3646,-2.4791 l -0.073,-9.3698 h 5.4323 l 1.349,5.651 q 2.0416,0.8385 3.9375,1.2396 1.9323,0.3646 4.1562,0.3646 4.375,0 6.2709,-1.6771 1.8958,-1.6771 1.8958,-4.1563 0,-2.3333 -1.9323,-3.9375 -1.8958,-1.6406 -6.9271,-2.7708 -7.1458,-1.6406 -10.5364,-4.375 -3.3542,-2.7708 -3.3542,-7.3646 0,-3.2083 1.8594,-5.724 1.8593,-2.552 5.177,-4.0468 3.3178,-1.4948 7.7292,-1.4948 4.4844,0 7.6563,1.0208 3.2083,1.0208 5.5781,2.7344 l 0.3646,9.0052 h -5.3959 l -1.1666,-5.25 q -1.2761,-0.9479 -3.0261,-1.4583 -1.75,-0.5105 -4.0104,-0.5105 -3.3542,0 -5.4687,1.5678 -2.0782,1.5677 -2.0782,3.9375 0,1.3854 0.5834,2.4062 0.6198,1.0208 2.3333,1.8594 1.7135,0.8021 5.0313,1.6042 8.2395,1.9322 11.4843,4.9218 3.2813,2.9896 3.2813,7.3646 0,4.9948 -3.7188,8.3854 -3.6823,3.3542 -11.6302,3.3542 z m 35.2188,-0.1458 q -4.375,0 -6.9636,-2.5521 -2.552,-2.5886 -2.552,-8.2396 v -23.9531 h -6.2344 v -5.323 h 6.2344 v -9.5156 h 7.1823 v 9.5156 h 8.5677 v 5.323 h -8.5677 v 23.9531 q 0,2.8438 1.1302,4.1927 1.1302,1.349 3.026,1.349 1.2761,0 2.8438,-0.2188 1.5677,-0.2552 2.4427,-0.4375 l 0.9843,4.7031 q -1.5677,0.474 -3.8645,0.8386 -2.2605,0.3646 -4.2292,0.3646 z"
         id="path1" />
      <path
         style="font-family:'Roboto Slab';-inkscape-font-specification:'Roboto Slab';fill:#ff7a40;stroke:none;stroke-width:0;fill-opacity:1"
         d="m 1125.234,1279.8966 q -4.4114,0 -8.0208,-1.75 -3.5729,-1.75 -5.7604,-5.2865 -2.1511,-3.5364 -2.3698,-8.8593 l 0.073,-0.2188 h 6.8906 q 0.1459,5.3594 2.4427,7.875 2.3334,2.5156 6.6355,2.5156 3.026,0 4.9583,-1.276 1.9323,-1.3125 2.8437,-3.5729 0.948,-2.2969 0.948,-5.25 v -32.375 l -7.073,-0.9479 v -4.7032 h 20.198 v 4.6302 l -5.9427,1.0209 v 32.375 q 0,4.7396 -1.823,8.3125 -1.7864,3.5729 -5.3229,5.5417 -3.5,1.9687 -8.6771,1.9687 z m 39.7396,0 q -6.1614,0 -9.3698,-2.9896 -3.2083,-3.026 -3.2083,-8.4948 0,-5.6146 4.5937,-9.0052 4.5938,-3.4271 12.7605,-3.4271 h 7.0364 v -3.8646 q 0,-3.5729 -2.1875,-5.5416 -2.151,-1.9688 -6.0885,-1.9688 -2.4792,0 -4.3021,0.6198 -1.8229,0.5833 -3.3177,1.6406 l -0.7656,5.5053 h -5.5417 v -9.0417 q 2.6614,-2.1511 6.1979,-3.2448 3.5365,-1.1302 7.8386,-1.1302 7.1822,0 11.2656,3.4271 4.0833,3.427 4.0833,9.8073 v 18.9948 q 0,0.7656 0,1.4948 0.036,0.7291 0.1094,1.4583 l 3.8281,0.401 v 4.5938 h -10.3177 q -0.3281,-1.6042 -0.5104,-2.8802 -0.1823,-1.2761 -0.2552,-2.5521 -2.0781,2.6614 -5.2136,4.4479 -3.0989,1.75 -6.6354,1.75 z m 1.0573,-6.0156 q 3.5729,0 6.5261,-1.7136 2.9531,-1.7135 4.2291,-4.1198 v -7.1458 h -7.2916 q -4.9584,0 -7.4376,2.3698 -2.4791,2.3698 -2.4791,5.2865 0,2.5885 1.6041,3.9739 1.6042,1.349 4.849,1.349 z m 41.823,5.25 -14.0365,-34.2709 -4.0833,-0.5468 v -4.6303 h 16.5521 v 4.6303 l -5.1407,0.7291 8.75,22.4584 1.0209,3.1718 h 0.2187 l 1.1667,-3.1718 8.1302,-22.4584 -5.2865,-0.7291 v -4.6303 h 16.5157 v 4.6303 l -4.1563,0.5468 -13.3437,34.2709 z m 39.8125,0.7656 q -6.1615,0 -9.3698,-2.9896 -3.2084,-3.026 -3.2084,-8.4948 0,-5.6146 4.5938,-9.0052 4.5937,-3.4271 12.7604,-3.4271 h 7.0365 v -3.8646 q 0,-3.5729 -2.1875,-5.5416 -2.1511,-1.9688 -6.0886,-1.9688 -2.4791,0 -4.3021,0.6198 -1.8229,0.5833 -3.3177,1.6406 l -0.7656,5.5053 h -5.5417 v -9.0417 q 2.6615,-2.1511 6.198,-3.2448 3.5364,-1.1302 7.8385,-1.1302 7.1823,0 11.2656,3.4271 4.0834,3.427 4.0834,9.8073 v 18.9948 q 0,0.7656 0,1.4948 0.036,0.7291 0.1093,1.4583 l 3.8282,0.401 v 4.5938 h -10.3177 q -0.3282,-1.6042 -0.5105,-2.8802 -0.1823,-1.2761 -0.2552,-2.5521 -2.0781,2.6614 -5.2135,4.4479 -3.099,1.75 -6.6354,1.75 z m 1.0573,-6.0156 q 3.5729,0 6.526,-1.7136 2.9531,-1.7135 4.2292,-4.1198 v -7.1458 h -7.2917 q -4.9583,0 -7.4375,2.3698 -2.4792,2.3698 -2.4792,5.2865 0,2.5885 1.6042,3.9739 1.6042,1.349 4.849,1.349 z"
         id="path5" />
    </g>
  </g>
</svg>
