<?xml version="1.0" encoding="UTF-8" standalone="no"?>
<!-- Created with Inkscape (http://www.inkscape.org/) -->

<svg
   width="530"
   height="120"
   viewBox="0 0 530 120.00001"
   version="1.1"
   id="svg1"
   inkscape:version="1.4 (1:1.4+202410161351+e7c3feb100)"
   sodipodi:docname="SebastJava-logoname-04.svg"
   inkscape:export-filename="SebastJava-logoname-04.png"
   inkscape:export-xdpi="96"
   inkscape:export-ydpi="96"
   xmlns:inkscape="http://www.inkscape.org/namespaces/inkscape"
   xmlns:sodipodi="http://sodipodi.sourceforge.net/DTD/sodipodi-0.dtd"
   xmlns="http://www.w3.org/2000/svg"
   xmlns:svg="http://www.w3.org/2000/svg">
  <sodipodi:namedview
     id="namedview1"
     pagecolor="#e5e5e5"
     bordercolor="#000000"
     borderopacity="0.25"
     inkscape:showpageshadow="false"
     inkscape:pageopacity="0.0"
     inkscape:pagecheckerboard="0"
     inkscape:deskcolor="#d1d1d1"
     inkscape:document-units="px"
     inkscape:current-layer="layer1"
     showborder="false"
     borderlayer="false"
     inkscape:zoom="2"
     inkscape:cx="265"
     inkscape:cy="60"
     inkscape:window-width="1920"
     inkscape:window-height="1011"
     inkscape:window-x="0"
     inkscape:window-y="0"
     inkscape:window-maximized="1" />
  <defs
     id="defs1" />
  <g
     inkscape:label="Layer 1"
     inkscape:groupmode="layer"
     id="layer1"
     transform="translate(-837.61928,-814.25598)">
    <g
       id="g4"
       transform="matrix(1.5038706,0,0,1.5038706,-441.47487,-319.76652)">
      <circle
         style="display:inline;fill:#ffffff;fill-opacity:0;stroke:none;stroke-width:0;stroke-linejoin:round"
         id="circle1"
         cx="890.43176"
         cy="793.96625"
         r="39.897049" />
      <path
         d="m 889.96218,830.83803 q -6.57389,0 -12.6535,-1.92768 -6.07961,-1.92768 -11.61552,-5.93133 V 807.607 h 7.56244 l 1.63112,11.31895 q 3.2128,1.97711 6.96931,3.06452 3.75651,1.08741 8.10615,1.08741 4.94277,0 8.35329,-1.48283 3.45994,-1.53226 5.28876,-4.20136 1.82883,-2.6691 1.82883,-6.2279 0,-3.31165 -1.58169,-5.83247 -1.58169,-2.52081 -5.23934,-4.39907 -3.60822,-1.92768 -9.88555,-3.36108 -7.41415,-1.72997 -12.55464,-4.59678 -5.09106,-2.91624 -7.76015,-7.01874 -2.61967,-4.15193 -2.61967,-9.49012 0,-5.63477 2.96566,-10.08326 3.01509,-4.4485 8.35329,-7.01874 5.33819,-2.57024 12.45579,-2.57024 7.56244,0 13.34548,2.3231 5.83248,2.27368 9.58898,5.53591 v 14.38347 h -7.56244 l -1.63111,-10.28097 q -2.22425,-1.7794 -5.53591,-2.96567 -3.31166,-1.18626 -8.205,-1.18626 -4.15193,0 -7.31531,1.48283 -3.16337,1.43341 -4.94277,4.05308 -1.7794,2.61967 -1.7794,6.17846 0,3.11395 1.58169,5.43705 1.63111,2.32311 5.23934,4.1025 3.65765,1.72997 9.73726,3.26223 11.36838,2.81739 17.20085,8.35329 5.8819,5.48648 5.8819,13.59263 0,5.78304 -3.11395,10.28097 -3.11394,4.44849 -8.79813,6.96931 -5.63476,2.52081 -13.29606,2.52081 z"
         id="path2"
         style="font-size:101.228px;line-height:101.228px;font-family:'Roboto Slab';-inkscape-font-specification:'Roboto Slab';letter-spacing:0px;display:none;fill:#ffffff;fill-opacity:0;stroke:none;stroke-width:0;stroke-linejoin:round"
         aria-label="S" />
      <path
         style="fill:#663399;fill-opacity:1;stroke:none;stroke-width:0;stroke-linejoin:round"
         d="m 872.89862,761.97668 a 36.572266,36.572266 0 0 0 -19.03907,31.99024 36.572266,36.572266 0 0 0 11.83399,26.84961 v -13.20899 h 7.5625 l 1.63086,11.31836 c 2.14186,1.31807 4.46441,2.33952 6.96875,3.06446 2.50434,0.72493 5.20766,1.08789 8.10742,1.08789 3.29518,0 6.07788,-0.49387 8.35156,-1.48243 2.30663,-1.0215 4.06985,-2.42177 5.28907,-4.20117 1.21921,-1.7794 1.83007,-3.85598 1.83007,-6.22851 0,-2.20777 -0.52757,-4.15149 -1.58203,-5.83203 -1.05446,-1.68054 -2.8018,-3.14822 -5.24023,-4.4004 -2.40548,-1.28511 -5.69989,-2.40572 -9.88477,-3.36132 -4.94276,-1.15332 -9.1277,-2.6845 -12.55469,-4.59571 -3.39403,-1.94415 -5.98037,-4.28453 -7.75976,-7.01953 -1.74645,-2.76795 -2.62109,-5.93144 -2.62109,-9.49023 0,-3.75651 0.98969,-7.11638 2.96679,-10.08203 1.1318,-1.66988 2.5178,-3.13533 4.14063,-4.40821 z"
         id="path3" />
      <path
         style="fill:#e75e22;fill-opacity:1;stroke:none;stroke-width:0;stroke-linejoin:round"
         d="m 889.56659,764.60559 c -2.76795,0 -5.20554,0.49387 -7.31446,1.48242 -2.10891,0.95561 -3.75709,2.30629 -4.94336,4.05274 -1.18626,1.74644 -1.77929,3.80521 -1.77929,6.17773 0,2.07596 0.52757,3.88877 1.58203,5.4375 1.0874,1.54874 2.83279,2.91726 5.23828,4.10352 2.43843,1.15331 5.68521,2.24021 9.73828,3.26171 7.57891,1.87826 13.31286,4.66292 17.20117,8.35352 3.92126,3.65765 5.88086,8.1877 5.88086,13.5918 0,3.85535 -1.03732,7.28263 -3.11328,10.28125 -1.75681,2.50973 -4.13518,4.55319 -7.11914,6.14258 a 36.572266,36.572266 0 0 0 22.06641,-33.52344 36.572266,36.572266 0 0 0 -14.50196,-29.15235 v 14.22266 h -7.5625 l -1.63281,-10.28125 c -1.48283,-1.18627 -3.32739,-2.174 -5.53516,-2.96484 -2.20777,-0.79084 -4.94285,-1.18555 -8.20507,-1.18555 z"
         id="path4" />
    </g>
    <g
       id="text5"
       style="font-size:74.6667px;line-height:74.6659px;font-family:'DejaVu Sans';-inkscape-font-specification:'DejaVu Sans';text-align:center;text-anchor:middle;fill:#202020;stroke-width:0;stroke-linejoin:round"
       aria-label="SebastJava">
      <path
         style="font-family:'Roboto Slab';-inkscape-font-specification:'Roboto Slab';fill:#663399;stroke:none"
         d="m 990.74682,902.89661 q -4.84896,0 -9.33333,-1.42188 -4.48438,-1.42187 -8.56772,-4.375 v -11.33855 h 5.57813 l 1.20313,8.34896 q 2.36979,1.45834 5.14062,2.26042 2.77084,0.80209 5.97917,0.80209 3.64584,0 6.16146,-1.09375 2.55209,-1.13021 3.90102,-3.09896 1.349,-1.96876 1.349,-4.59376 0,-2.44271 -1.1667,-4.30208 -1.16665,-1.85938 -3.86457,-3.2448 -2.66146,-1.42187 -7.29167,-2.47916 -5.46875,-1.27605 -9.26042,-3.39063 -3.75521,-2.15104 -5.72396,-5.17709 -1.93229,-3.0625 -1.93229,-7 0,-4.15625 2.1875,-7.4375 2.22396,-3.28125 6.16146,-5.17709 3.9375,-1.89583 9.18751,-1.89583 5.57812,0 9.84374,1.71354 4.3021,1.67708 7.0729,4.08334 v 10.60938 h -5.5781 l -1.2031,-7.58334 q -1.64065,-1.3125 -4.08336,-2.1875 -2.44271,-0.875 -6.05208,-0.875 -3.06251,0 -5.39584,1.09375 -2.33333,1.05729 -3.64583,2.98958 -1.31251,1.93229 -1.31251,4.5573 0,2.29687 1.16667,4.01041 1.20313,1.71355 3.86459,3.02605 2.69792,1.27604 7.18229,2.40625 8.38547,2.07812 12.68747,6.16146 4.3386,4.04688 4.3386,10.02605 0,4.26562 -2.2969,7.58333 -2.2969,3.28126 -6.4896,5.14063 -4.15623,1.85938 -9.80728,1.85938 z m 42.54688,0 q -5.4687,0 -9.5156,-2.47917 -4.0469,-2.51563 -6.2708,-6.96355 -2.1876,-4.44791 -2.1876,-10.28125 v -1.60417 q 0,-5.61458 2.2969,-10.02604 2.3334,-4.44792 6.1615,-7.00001 3.8646,-2.58854 8.4219,-2.58854 5.3229,0 8.8958,2.1875 3.6094,2.1875 5.4323,6.16146 1.8229,3.9375 1.8229,9.29688 v 4.48438 h -25.5937 l -0.1094,0.18229 q 0.073,3.79167 1.3125,6.74479 1.276,2.91667 3.6458,4.59376 2.3698,1.67708 5.6875,1.67708 3.6459,0 6.3802,-1.02083 2.7709,-1.0573 4.7761,-2.88021 l 2.8073,4.66667 q -2.1146,2.04166 -5.6146,3.46354 -3.4636,1.38542 -8.349,1.38542 z m -10.3177,-24.4271 h 18.1927 v -0.94792 q 0,-2.84375 -1.0208,-5.06771 -0.9844,-2.26041 -2.9896,-3.53646 -1.9687,-1.3125 -4.9583,-1.3125 -2.4063,0 -4.375,1.42188 -1.9688,1.38542 -3.2448,3.79167 -1.2761,2.40625 -1.6771,5.46875 z m 51.9167,24.4271 q -3.8646,0 -6.7083,-1.45834 -2.8438,-1.49479 -4.7396,-4.375 l -0.6563,5.06771 h -6.1979 V 850.907 l -5.9427,-1.02084 v -4.63021 h 13.125 v 22.09376 q 1.8594,-2.625 4.5938,-4.01041 2.7708,-1.38542 6.4531,-1.38542 4.8854,0 8.3125,2.66146 3.4635,2.625 5.2864,7.40104 1.8594,4.77605 1.8594,11.1198 v 0.76563 q 0,5.6875 -1.8594,9.95313 -1.8229,4.26562 -5.2864,6.67187 -3.4271,2.3698 -8.2396,2.3698 z m -1.8229,-5.83334 q 5.0677,0 7.5104,-3.60938 2.4792,-3.60937 2.4792,-9.55208 v -0.76563 q 0,-4.55729 -1.0938,-7.98438 -1.0937,-3.46354 -3.3177,-5.39583 -2.224,-1.96875 -5.651,-1.96875 -3.3177,0 -5.6146,1.60416 -2.2604,1.60417 -3.6094,4.30209 v 17.42709 q 1.349,2.73438 3.6458,4.33854 2.3334,1.60417 5.6511,1.60417 z m 35.3646,5.83334 q -6.1615,0 -9.3698,-2.98959 -3.2084,-3.02604 -3.2084,-8.49479 0,-5.61459 4.5938,-9.00522 4.5938,-3.42708 12.7604,-3.42708 h 7.0365 v -3.86459 q 0,-3.57291 -2.1875,-5.54167 -2.1511,-1.96875 -6.0886,-1.96875 -2.4791,0 -4.302,0.6198 -1.823,0.58333 -3.3178,1.64062 l -0.7656,5.50521 h -5.5417 v -9.04167 q 2.6615,-2.15104 6.198,-3.24479 3.5364,-1.13021 7.8385,-1.13021 7.1823,0 11.2656,3.42708 4.0834,3.42709 4.0834,9.8073 v 18.9948 q 0,0.76563 0,1.49479 0.036,0.72917 0.1094,1.45834 l 3.8281,0.40104 v 4.59375 h -10.3177 q -0.3282,-1.60417 -0.5104,-2.88021 -0.1823,-1.27604 -0.2553,-2.55208 -2.0781,2.66146 -5.2135,4.44792 -3.099,1.75 -6.6354,1.75 z m 1.0573,-6.01563 q 3.5729,0 6.526,-1.71354 2.9531,-1.71355 4.2292,-4.1198 v -7.14583 h -7.2917 q -4.9583,0 -7.4375,2.36979 -2.4792,2.36979 -2.4792,5.28646 0,2.58854 1.6042,3.97396 1.6042,1.34896 4.849,1.34896 z m 42.4219,6.01563 q -3.974,0 -7.4375,-0.80209 -3.4636,-0.80208 -7.3646,-2.47916 l -0.073,-9.3698 h 5.4323 l 1.3489,5.65104 q 2.0417,0.83855 3.9375,1.23959 1.9323,0.36458 4.1563,0.36458 4.375,0 6.2708,-1.67708 1.8958,-1.67709 1.8958,-4.15626 0,-2.33333 -1.9323,-3.9375 -1.8958,-1.64062 -6.927,-2.77083 -7.1459,-1.64063 -10.5365,-4.375 -3.3542,-2.77084 -3.3542,-7.36459 0,-3.20834 1.8594,-5.72396 1.8594,-2.55209 5.1771,-4.04688 3.3177,-1.49479 7.7292,-1.49479 4.4843,0 7.6562,1.02083 3.2083,1.02084 5.5781,2.73438 l 0.3646,9.00521 h -5.3958 l -1.1667,-5.25 q -1.276,-0.94792 -3.026,-1.45833 -1.75,-0.51042 -4.0104,-0.51042 -3.3542,0 -5.4688,1.56771 -2.0781,1.56771 -2.0781,3.9375 0,1.38542 0.5833,2.40625 0.6198,1.02083 2.3333,1.85938 1.7136,0.80208 5.0313,1.60416 8.2396,1.9323 11.4844,4.92188 3.2812,2.98959 3.2812,7.36459 0,4.99479 -3.7187,8.38542 -3.6823,3.35417 -11.6302,3.35417 z m 35.2187,-0.14584 q -4.375,0 -6.9635,-2.55208 -2.5521,-2.58854 -2.5521,-8.23959 v -23.95313 h -6.2344 v -5.32292 h 6.2344 v -9.51563 h 7.1823 v 9.51563 h 8.5677 v 5.32292 h -8.5677 v 23.95313 q 0,2.84375 1.1302,4.19271 1.1302,1.34896 3.0261,1.34896 1.276,0 2.8437,-0.21875 1.5677,-0.25521 2.4427,-0.4375 l 0.9844,4.70313 q -1.5677,0.47396 -3.8646,0.83854 -2.2604,0.36458 -4.2292,0.36458 z"
         id="path1" />
      <path
         style="font-family:'Roboto Slab';-inkscape-font-specification:'Roboto Slab';fill:#e75e22;stroke:none"
         d="m 1215.4605,902.89661 q -4.4115,0 -8.0209,-1.75 -3.5729,-1.75 -5.7604,-5.28646 -2.151,-3.53646 -2.3698,-8.85938 l 0.073,-0.21875 h 6.8907 q 0.1458,5.35937 2.4427,7.875 2.3333,2.51563 6.6354,2.51563 3.026,0 4.9583,-1.27605 1.9323,-1.3125 2.8438,-3.57291 0.9479,-2.29688 0.9479,-5.25001 v -32.37501 l -7.0729,-0.94792 v -4.70313 h 20.1979 v 4.63021 l -5.9427,1.02084 v 32.37501 q 0,4.73959 -1.8229,8.31251 -1.7865,3.57291 -5.3229,5.54167 -3.5,1.96875 -8.6771,1.96875 z m 39.7396,0 q -6.1615,0 -9.3698,-2.98959 -3.2084,-3.02604 -3.2084,-8.49479 0,-5.61459 4.5938,-9.00522 4.5937,-3.42708 12.7604,-3.42708 h 7.0365 v -3.86459 q 0,-3.57291 -2.1875,-5.54167 -2.1511,-1.96875 -6.0886,-1.96875 -2.4792,0 -4.3021,0.6198 -1.8229,0.58333 -3.3177,1.64062 l -0.7656,5.50521 h -5.5417 v -9.04167 q 2.6615,-2.15104 6.1979,-3.24479 3.5365,-1.13021 7.8386,-1.13021 7.1823,0 11.2656,3.42708 4.0834,3.42709 4.0834,9.8073 v 18.9948 q 0,0.76563 0,1.49479 0.036,0.72917 0.1093,1.45834 l 3.8282,0.40104 v 4.59375 h -10.3178 q -0.3281,-1.60417 -0.5104,-2.88021 -0.1823,-1.27604 -0.2552,-2.55208 -2.0781,2.66146 -5.2135,4.44792 -3.099,1.75 -6.6354,1.75 z m 1.0572,-6.01563 q 3.573,0 6.5261,-1.71354 2.9531,-1.71355 4.2292,-4.1198 v -7.14583 h -7.2917 q -4.9583,0 -7.4375,2.36979 -2.4792,2.36979 -2.4792,5.28646 0,2.58854 1.6042,3.97396 1.6042,1.34896 4.8489,1.34896 z m 41.823,5.25 -14.0365,-34.27085 -4.0833,-0.54687 v -4.63021 h 16.5521 v 4.63021 l -5.1406,0.72916 8.75,22.45835 1.0208,3.17187 h 0.2188 l 1.1666,-3.17187 8.1302,-22.45835 -5.2864,-0.72916 v -4.63021 h 16.5156 v 4.63021 l -4.1562,0.54687 -13.3438,34.27085 z m 39.8125,0.76563 q -6.1615,0 -9.3698,-2.98959 -3.2083,-3.02604 -3.2083,-8.49479 0,-5.61459 4.5937,-9.00522 4.5938,-3.42708 12.7604,-3.42708 h 7.0365 v -3.86459 q 0,-3.57291 -2.1875,-5.54167 -2.151,-1.96875 -6.0885,-1.96875 -2.4792,0 -4.3021,0.6198 -1.8229,0.58333 -3.3177,1.64062 l -0.7657,5.50521 h -5.5416 v -9.04167 q 2.6614,-2.15104 6.1979,-3.24479 3.5365,-1.13021 7.8385,-1.13021 7.1823,0 11.2657,3.42708 4.0833,3.42709 4.0833,9.8073 v 18.9948 q 0,0.76563 0,1.49479 0.036,0.72917 0.1094,1.45834 l 3.8281,0.40104 v 4.59375 h -10.3177 q -0.3281,-1.60417 -0.5104,-2.88021 -0.1823,-1.27604 -0.2552,-2.55208 -2.0782,2.66146 -5.2136,4.44792 -3.0989,1.75 -6.6354,1.75 z m 1.0573,-6.01563 q 3.5729,0 6.526,-1.71354 2.9532,-1.71355 4.2292,-4.1198 v -7.14583 h -7.2917 q -4.9583,0 -7.4375,2.36979 -2.4791,2.36979 -2.4791,5.28646 0,2.58854 1.6041,3.97396 1.6042,1.34896 4.849,1.34896 z"
         id="path5" />
    </g>
  </g>
</svg>
