<?xml version="1.0" encoding="UTF-8" standalone="no"?>
<!-- Created with Inkscape (http://www.inkscape.org/) -->

<svg
   width="530"
   height="120"
   viewBox="0 0 530 120.00001"
   version="1.1"
   id="svg1"
   inkscape:version="1.4 (1:1.4+202410161351+e7c3feb100)"
   sodipodi:docname="SebastJava-logoname-05-source.svg"
   xmlns:inkscape="http://www.inkscape.org/namespaces/inkscape"
   xmlns:sodipodi="http://sodipodi.sourceforge.net/DTD/sodipodi-0.dtd"
   xmlns="http://www.w3.org/2000/svg"
   xmlns:svg="http://www.w3.org/2000/svg">
  <sodipodi:namedview
     id="namedview1"
     pagecolor="#e5e5e5"
     bordercolor="#000000"
     borderopacity="0.25"
     inkscape:showpageshadow="false"
     inkscape:pageopacity="0.0"
     inkscape:pagecheckerboard="0"
     inkscape:deskcolor="#d1d1d1"
     inkscape:document-units="px"
     inkscape:current-layer="layer1"
     showborder="false"
     borderlayer="false"
     inkscape:zoom="2"
     inkscape:cx="265"
     inkscape:cy="60"
     inkscape:window-width="1920"
     inkscape:window-height="1011"
     inkscape:window-x="0"
     inkscape:window-y="0"
     inkscape:window-maximized="1" />
  <defs
     id="defs1" />
  <g
     inkscape:label="Layer 1"
     inkscape:groupmode="layer"
     id="layer1"
     transform="translate(-837.61928,-814.25598)">
    <g
       id="g1"
       transform="translate(0,-120)">
      <g
         id="g4"
         transform="matrix(1.5038706,0,0,1.5038706,-441.47487,-199.76652)">
        <circle
           style="display:inline;fill:#ffffff;fill-opacity:0;stroke:none;stroke-width:0;stroke-linejoin:round"
           id="circle1"
           cx="890.43176"
           cy="793.96625"
           r="39.897049" />
        <path
           d="m 889.96218,830.83803 q -6.57389,0 -12.6535,-1.92768 -6.07961,-1.92768 -11.61552,-5.93133 V 807.607 h 7.56244 l 1.63112,11.31895 q 3.2128,1.97711 6.96931,3.06452 3.75651,1.08741 8.10615,1.08741 4.94277,0 8.35329,-1.48283 3.45994,-1.53226 5.28876,-4.20136 1.82883,-2.6691 1.82883,-6.2279 0,-3.31165 -1.58169,-5.83247 -1.58169,-2.52081 -5.23934,-4.39907 -3.60822,-1.92768 -9.88555,-3.36108 -7.41415,-1.72997 -12.55464,-4.59678 -5.09106,-2.91624 -7.76015,-7.01874 -2.61967,-4.15193 -2.61967,-9.49012 0,-5.63477 2.96566,-10.08326 3.01509,-4.4485 8.35329,-7.01874 5.33819,-2.57024 12.45579,-2.57024 7.56244,0 13.34548,2.3231 5.83248,2.27368 9.58898,5.53591 v 14.38347 h -7.56244 l -1.63111,-10.28097 q -2.22425,-1.7794 -5.53591,-2.96567 -3.31166,-1.18626 -8.205,-1.18626 -4.15193,0 -7.31531,1.48283 -3.16337,1.43341 -4.94277,4.05308 -1.7794,2.61967 -1.7794,6.17846 0,3.11395 1.58169,5.43705 1.63111,2.32311 5.23934,4.1025 3.65765,1.72997 9.73726,3.26223 11.36838,2.81739 17.20085,8.35329 5.8819,5.48648 5.8819,13.59263 0,5.78304 -3.11395,10.28097 -3.11394,4.44849 -8.79813,6.96931 -5.63476,2.52081 -13.29606,2.52081 z"
           id="path2"
           style="font-size:101.228px;line-height:101.228px;font-family:'Roboto Slab';-inkscape-font-specification:'Roboto Slab';letter-spacing:0px;display:none;fill:#ffffff;fill-opacity:0;stroke:none;stroke-width:0;stroke-linejoin:round"
           aria-label="S" />
        <path
           style="fill:#663399;fill-opacity:1;stroke:none;stroke-width:0;stroke-linejoin:round"
           d="m 872.89862,761.97668 a 36.572266,36.572266 0 0 0 -19.03907,31.99024 36.572266,36.572266 0 0 0 11.83399,26.84961 v -13.20899 h 7.5625 l 1.63086,11.31836 c 2.14186,1.31807 4.46441,2.33952 6.96875,3.06446 2.50434,0.72493 5.20766,1.08789 8.10742,1.08789 3.29518,0 6.07788,-0.49387 8.35156,-1.48243 2.30663,-1.0215 4.06985,-2.42177 5.28907,-4.20117 1.21921,-1.7794 1.83007,-3.85598 1.83007,-6.22851 0,-2.20777 -0.52757,-4.15149 -1.58203,-5.83203 -1.05446,-1.68054 -2.8018,-3.14822 -5.24023,-4.4004 -2.40548,-1.28511 -5.69989,-2.40572 -9.88477,-3.36132 -4.94276,-1.15332 -9.1277,-2.6845 -12.55469,-4.59571 -3.39403,-1.94415 -5.98037,-4.28453 -7.75976,-7.01953 -1.74645,-2.76795 -2.62109,-5.93144 -2.62109,-9.49023 0,-3.75651 0.98969,-7.11638 2.96679,-10.08203 1.1318,-1.66988 2.5178,-3.13533 4.14063,-4.40821 z"
           id="path3" />
        <path
           style="fill:#e75e22;fill-opacity:1;stroke:none;stroke-width:0;stroke-linejoin:round"
           d="m 889.56659,764.60559 c -2.76795,0 -5.20554,0.49387 -7.31446,1.48242 -2.10891,0.95561 -3.75709,2.30629 -4.94336,4.05274 -1.18626,1.74644 -1.77929,3.80521 -1.77929,6.17773 0,2.07596 0.52757,3.88877 1.58203,5.4375 1.0874,1.54874 2.83279,2.91726 5.23828,4.10352 2.43843,1.15331 5.68521,2.24021 9.73828,3.26171 7.57891,1.87826 13.31286,4.66292 17.20117,8.35352 3.92126,3.65765 5.88086,8.1877 5.88086,13.5918 0,3.85535 -1.03732,7.28263 -3.11328,10.28125 -1.75681,2.50973 -4.13518,4.55319 -7.11914,6.14258 a 36.572266,36.572266 0 0 0 22.06641,-33.52344 36.572266,36.572266 0 0 0 -14.50196,-29.15235 v 14.22266 h -7.5625 l -1.63281,-10.28125 c -1.48283,-1.18627 -3.32739,-2.174 -5.53516,-2.96484 -2.20777,-0.79084 -4.94285,-1.18555 -8.20507,-1.18555 z"
           id="path4" />
      </g>
      <text
         xml:space="preserve"
         style="font-size:74.6667px;line-height:74.6659px;font-family:'DejaVu Sans';-inkscape-font-specification:'DejaVu Sans';text-align:center;writing-mode:lr-tb;direction:ltr;text-anchor:middle;opacity:1;fill:#202020;fill-opacity:1;stroke-width:0;stroke-linejoin:round"
         x="1166.1792"
         y="1022.131"
         id="text5"><tspan
           sodipodi:role="line"
           id="tspan5"
           x="1166.1792"
           y="1022.131"
           style="font-style:normal;font-variant:normal;font-weight:normal;font-stretch:normal;font-size:74.6667px;line-height:74.6659px;font-family:'Roboto Slab';-inkscape-font-specification:'Roboto Slab';fill:#202020;fill-opacity:1"><tspan
             style="fill:#663399;fill-opacity:1"
             id="tspan1">Sebast</tspan><tspan
             style="fill:#e75e22;fill-opacity:1"
             id="tspan2">Java</tspan></tspan></text>
    </g>
  </g>
</svg>
